ply
format ascii 1.0
comment Fichier PLY pour hypersphère
element vertex 125
property float x
property float y
property float z
property float w
element edge 660
property int v1
property int v2
end_header
1.000000 0.000000 0.000000 0.000000
1.000000 0.000000 0.000000 0.000000
1.000000 0.000000 0.000000 0.000000
1.000000 0.000000 -0.000000 0.000000
1.000000 0.000000 -0.000000 0.000000
1.000000 0.000000 0.000000 0.000000
1.000000 0.000000 0.000000 0.000000
1.000000 0.000000 0.000000 0.000000
1.000000 0.000000 -0.000000 0.000000
1.000000 0.000000 -0.000000 0.000000
1.000000 0.000000 0.000000 0.000000
1.000000 0.000000 0.000000 0.000000
1.000000 0.000000 0.000000 0.000000
1.000000 0.000000 -0.000000 0.000000
1.000000 0.000000 -0.000000 0.000000
1.000000 -0.000000 0.000000 0.000000
1.000000 -0.000000 0.000000 0.000000
1.000000 -0.000000 0.000000 0.000000
1.000000 -0.000000 -0.000000 0.000000
1.000000 -0.000000 -0.000000 0.000000
1.000000 -0.000000 0.000000 0.000000
1.000000 -0.000000 0.000000 0.000000
1.000000 -0.000000 0.000000 0.000000
1.000000 -0.000000 -0.000000 0.000000
1.000000 -0.000000 -0.000000 0.000000
0.707107 0.707107 0.000000 0.000000
0.707107 0.707107 0.000000 0.000000
0.707107 0.707107 0.000000 0.000000
0.707107 0.707107 -0.000000 0.000000
0.707107 0.707107 -0.000000 0.000000
0.707107 0.500000 0.500000 0.000000
0.707107 0.500000 0.353553 0.353553
0.707107 0.500000 0.000000 0.500000
0.707107 0.500000 -0.353553 0.353553
0.707107 0.500000 -0.500000 0.000000
0.707107 0.000000 0.707107 0.000000
0.707107 0.000000 0.500000 0.500000
0.707107 0.000000 0.000000 0.707107
0.707107 0.000000 -0.500000 0.500000
0.707107 0.000000 -0.707107 0.000000
0.707107 -0.500000 0.500000 0.000000
0.707107 -0.500000 0.353553 0.353553
0.707107 -0.500000 0.000000 0.500000
0.707107 -0.500000 -0.353553 0.353553
0.707107 -0.500000 -0.500000 0.000000
0.707107 -0.707107 0.000000 0.000000
0.707107 -0.707107 0.000000 0.000000
0.707107 -0.707107 0.000000 0.000000
0.707107 -0.707107 -0.000000 0.000000
0.707107 -0.707107 -0.000000 0.000000
0.000000 1.000000 0.000000 0.000000
0.000000 1.000000 0.000000 0.000000
0.000000 1.000000 0.000000 0.000000
0.000000 1.000000 -0.000000 0.000000
0.000000 1.000000 -0.000000 0.000000
0.000000 0.707107 0.707107 0.000000
0.000000 0.707107 0.500000 0.500000
0.000000 0.707107 0.000000 0.707107
0.000000 0.707107 -0.500000 0.500000
0.000000 0.707107 -0.707107 0.000000
0.000000 0.000000 1.000000 0.000000
0.000000 0.000000 0.707107 0.707107
0.000000 0.000000 0.000000 1.000000
0.000000 0.000000 -0.707107 0.707107
0.000000 0.000000 -1.000000 0.000000
0.000000 -0.707107 0.707107 0.000000
0.000000 -0.707107 0.500000 0.500000
0.000000 -0.707107 0.000000 0.707107
0.000000 -0.707107 -0.500000 0.500000
0.000000 -0.707107 -0.707107 0.000000
0.000000 -1.000000 0.000000 0.000000
0.000000 -1.000000 0.000000 0.000000
0.000000 -1.000000 0.000000 0.000000
0.000000 -1.000000 -0.000000 0.000000
0.000000 -1.000000 -0.000000 0.000000
-0.707107 0.707107 0.000000 0.000000
-0.707107 0.707107 0.000000 0.000000
-0.707107 0.707107 0.000000 0.000000
-0.707107 0.707107 -0.000000 0.000000
-0.707107 0.707107 -0.000000 0.000000
-0.707107 0.500000 0.500000 0.000000
-0.707107 0.500000 0.353553 0.353553
-0.707107 0.500000 0.000000 0.500000
-0.707107 0.500000 -0.353553 0.353553
-0.707107 0.500000 -0.500000 0.000000
-0.707107 0.000000 0.707107 0.000000
-0.707107 0.000000 0.500000 0.500000
-0.707107 0.000000 0.000000 0.707107
-0.707107 0.000000 -0.500000 0.500000
-0.707107 0.000000 -0.707107 0.000000
-0.707107 -0.500000 0.500000 0.000000
-0.707107 -0.500000 0.353553 0.353553
-0.707107 -0.500000 0.000000 0.500000
-0.707107 -0.500000 -0.353553 0.353553
-0.707107 -0.500000 -0.500000 0.000000
-0.707107 -0.707107 0.000000 0.000000
-0.707107 -0.707107 0.000000 0.000000
-0.707107 -0.707107 0.000000 0.000000
-0.707107 -0.707107 -0.000000 0.000000
-0.707107 -0.707107 -0.000000 0.000000
-1.000000 0.000000 0.000000 0.000000
-1.000000 0.000000 0.000000 0.000000
-1.000000 0.000000 0.000000 0.000000
-1.000000 0.000000 -0.000000 0.000000
-1.000000 0.000000 -0.000000 0.000000
-1.000000 0.000000 0.000000 0.000000
-1.000000 0.000000 0.000000 0.000000
-1.000000 0.000000 0.000000 0.000000
-1.000000 0.000000 -0.000000 0.000000
-1.000000 0.000000 -0.000000 0.000000
-1.000000 0.000000 0.000000 0.000000
-1.000000 0.000000 0.000000 0.000000
-1.000000 0.000000 0.000000 0.000000
-1.000000 0.000000 -0.000000 0.000000
-1.000000 0.000000 -0.000000 0.000000
-1.000000 -0.000000 0.000000 0.000000
-1.000000 -0.000000 0.000000 0.000000
-1.000000 -0.000000 0.000000 0.000000
-1.000000 -0.000000 -0.000000 0.000000
-1.000000 -0.000000 -0.000000 0.000000
-1.000000 -0.000000 0.000000 0.000000
-1.000000 -0.000000 0.000000 0.000000
-1.000000 -0.000000 0.000000 0.000000
-1.000000 -0.000000 -0.000000 0.000000
-1.000000 -0.000000 -0.000000 0.000000
0 1
0 2
0 3
0 4
0 5
0 6
0 7
0 8
0 9
0 10
0 11
0 12
0 13
0 14
0 15
0 16
0 17
0 18
0 19
0 20
0 21
0 22
0 23
0 24
1 2
1 3
1 4
1 5
1 6
1 7
1 8
1 9
1 10
1 11
1 12
1 13
1 14
1 15
1 16
1 17
1 18
1 19
1 20
1 21
1 22
1 23
1 24
2 3
2 4
2 5
2 6
2 7
2 8
2 9
2 10
2 11
2 12
2 13
2 14
2 15
2 16
2 17
2 18
2 19
2 20
2 21
2 22
2 23
2 24
3 4
3 5
3 6
3 7
3 8
3 9
3 10
3 11
3 12
3 13
3 14
3 15
3 16
3 17
3 18
3 19
3 20
3 21
3 22
3 23
3 24
4 5
4 6
4 7
4 8
4 9
4 10
4 11
4 12
4 13
4 14
4 15
4 16
4 17
4 18
4 19
4 20
4 21
4 22
4 23
4 24
5 6
5 7
5 8
5 9
5 10
5 11
5 12
5 13
5 14
5 15
5 16
5 17
5 18
5 19
5 20
5 21
5 22
5 23
5 24
6 7
6 8
6 9
6 10
6 11
6 12
6 13
6 14
6 15
6 16
6 17
6 18
6 19
6 20
6 21
6 22
6 23
6 24
7 8
7 9
7 10
7 11
7 12
7 13
7 14
7 15
7 16
7 17
7 18
7 19
7 20
7 21
7 22
7 23
7 24
8 9
8 10
8 11
8 12
8 13
8 14
8 15
8 16
8 17
8 18
8 19
8 20
8 21
8 22
8 23
8 24
9 10
9 11
9 12
9 13
9 14
9 15
9 16
9 17
9 18
9 19
9 20
9 21
9 22
9 23
9 24
10 11
10 12
10 13
10 14
10 15
10 16
10 17
10 18
10 19
10 20
10 21
10 22
10 23
10 24
11 12
11 13
11 14
11 15
11 16
11 17
11 18
11 19
11 20
11 21
11 22
11 23
11 24
12 13
12 14
12 15
12 16
12 17
12 18
12 19
12 20
12 21
12 22
12 23
12 24
13 14
13 15
13 16
13 17
13 18
13 19
13 20
13 21
13 22
13 23
13 24
14 15
14 16
14 17
14 18
14 19
14 20
14 21
14 22
14 23
14 24
15 16
15 17
15 18
15 19
15 20
15 21
15 22
15 23
15 24
16 17
16 18
16 19
16 20
16 21
16 22
16 23
16 24
17 18
17 19
17 20
17 21
17 22
17 23
17 24
18 19
18 20
18 21
18 22
18 23
18 24
19 20
19 21
19 22
19 23
19 24
20 21
20 22
20 23
20 24
21 22
21 23
21 24
22 23
22 24
23 24
25 26
25 27
25 28
25 29
26 27
26 28
26 29
27 28
27 29
28 29
45 46
45 47
45 48
45 49
46 47
46 48
46 49
47 48
47 49
48 49
50 51
50 52
50 53
50 54
51 52
51 53
51 54
52 53
52 54
53 54
70 71
70 72
70 73
70 74
71 72
71 73
71 74
72 73
72 74
73 74
75 76
75 77
75 78
75 79
76 77
76 78
76 79
77 78
77 79
78 79
95 96
95 97
95 98
95 99
96 97
96 98
96 99
97 98
97 99
98 99
100 101
100 102
100 103
100 104
100 105
100 106
100 107
100 108
100 109
100 110
100 111
100 112
100 113
100 114
100 115
100 116
100 117
100 118
100 119
100 120
100 121
100 122
100 123
100 124
101 102
101 103
101 104
101 105
101 106
101 107
101 108
101 109
101 110
101 111
101 112
101 113
101 114
101 115
101 116
101 117
101 118
101 119
101 120
101 121
101 122
101 123
101 124
102 103
102 104
102 105
102 106
102 107
102 108
102 109
102 110
102 111
102 112
102 113
102 114
102 115
102 116
102 117
102 118
102 119
102 120
102 121
102 122
102 123
102 124
103 104
103 105
103 106
103 107
103 108
103 109
103 110
103 111
103 112
103 113
103 114
103 115
103 116
103 117
103 118
103 119
103 120
103 121
103 122
103 123
103 124
104 105
104 106
104 107
104 108
104 109
104 110
104 111
104 112
104 113
104 114
104 115
104 116
104 117
104 118
104 119
104 120
104 121
104 122
104 123
104 124
105 106
105 107
105 108
105 109
105 110
105 111
105 112
105 113
105 114
105 115
105 116
105 117
105 118
105 119
105 120
105 121
105 122
105 123
105 124
106 107
106 108
106 109
106 110
106 111
106 112
106 113
106 114
106 115
106 116
106 117
106 118
106 119
106 120
106 121
106 122
106 123
106 124
107 108
107 109
107 110
107 111
107 112
107 113
107 114
107 115
107 116
107 117
107 118
107 119
107 120
107 121
107 122
107 123
107 124
108 109
108 110
108 111
108 112
108 113
108 114
108 115
108 116
108 117
108 118
108 119
108 120
108 121
108 122
108 123
108 124
109 110
109 111
109 112
109 113
109 114
109 115
109 116
109 117
109 118
109 119
109 120
109 121
109 122
109 123
109 124
110 111
110 112
110 113
110 114
110 115
110 116
110 117
110 118
110 119
110 120
110 121
110 122
110 123
110 124
111 112
111 113
111 114
111 115
111 116
111 117
111 118
111 119
111 120
111 121
111 122
111 123
111 124
112 113
112 114
112 115
112 116
112 117
112 118
112 119
112 120
112 121
112 122
112 123
112 124
113 114
113 115
113 116
113 117
113 118
113 119
113 120
113 121
113 122
113 123
113 124
114 115
114 116
114 117
114 118
114 119
114 120
114 121
114 122
114 123
114 124
115 116
115 117
115 118
115 119
115 120
115 121
115 122
115 123
115 124
116 117
116 118
116 119
116 120
116 121
116 122
116 123
116 124
117 118
117 119
117 120
117 121
117 122
117 123
117 124
118 119
118 120
118 121
118 122
118 123
118 124
119 120
119 121
119 122
119 123
119 124
120 121
120 122
120 123
120 124
121 122
121 123
121 124
122 123
122 124
123 124
